<svg xmlns="http://www.w3.org/2000/svg" width="257" height="220" viewBox="0 0 257 220" fill="none">
    <path
        d="M72.6935 73.3144H4.43335C4.10659 73.3144 3.8125 73.053 3.8125 72.6935V4.43334C3.8125 4.10658 4.07392 3.8125 4.43335 3.8125H72.6935C73.0203 3.8125 73.3144 4.07391 73.3144 4.43334V72.6935C73.3144 73.0203 73.053 73.3144 72.6935 73.3144Z"
        stroke="#111015" stroke-width="2" stroke-miterlimit="10"></path>
    <path d="M7.20844 1H1V7.20844H7.20844V1Z" fill="white" stroke="#111015" stroke-width="2"
        stroke-miterlimit="10"></path>
    <path d="M76.1538 1H69.9453V7.20844H76.1538V1Z" fill="white" stroke="#111015" stroke-width="2"
        stroke-miterlimit="10"></path>
    <path d="M7.20844 35.4766H1V41.685H7.20844V35.4766Z" fill="white" stroke="#111015"
        stroke-width="2" stroke-miterlimit="10"></path>
    <path
        d="M38.5808 41.6459C36.8816 41.6459 35.4766 40.2735 35.4766 38.5417C35.4766 36.8426 36.849 35.4375 38.5808 35.4375C40.2799 35.4375 41.685 36.8099 41.685 38.5417C41.685 40.2735 40.2799 41.6459 38.5808 41.6459Z"
        fill="white" stroke="#111015" stroke-width="2" stroke-miterlimit="10"></path>
    <path d="M76.1538 35.4766H69.9453V41.685H76.1538V35.4766Z" fill="white" stroke="#111015"
        stroke-width="2" stroke-miterlimit="10"></path>
    <path d="M7.20844 69.9453H1V76.1538H7.20844V69.9453Z" fill="white" stroke="#111015"
        stroke-width="2" stroke-miterlimit="10"></path>
    <path d="M41.685 69.9453H35.4766V76.1538H41.685V69.9453Z" fill="white" stroke="#111015"
        stroke-width="2" stroke-miterlimit="10"></path>
    <path d="M76.1538 69.9453H69.9453V76.1538H76.1538V69.9453Z" fill="white" stroke="#111015"
        stroke-width="2" stroke-miterlimit="10"></path>
    <path d="M41.685 1H35.4766V7.20844H41.685V1Z" fill="white" stroke="#111015" stroke-width="2"
        stroke-miterlimit="10"></path>
    <path
        d="M71.6473 97.9468L53.0547 84.8438L54.035 107.554L60.08 100.659L63.7397 111.638L69.8501 108.338L62.5634 99.2866L71.6473 97.9468Z"
        fill="#111015"></path>
    <path
        d="M249.447 70.1328C252.649 70.1328 255.263 72.7469 255.263 75.9491V212.666C255.263 215.868 252.649 218.482 249.447 218.482H112.73C109.528 218.482 106.914 215.868 106.914 212.666"
        fill="white"></path>
    <path
        d="M249.447 70.1328C252.649 70.1328 255.263 72.7469 255.263 75.9491V212.666C255.263 215.868 252.649 218.482 249.447 218.482H112.73C109.528 218.482 106.914 215.868 106.914 212.666"
        stroke="#111015" stroke-width="2" stroke-miterlimit="10"></path>
    <path
        d="M243.011 213.316H107.667C104.072 213.316 101.164 210.408 101.164 206.814V71.5025C101.164 67.9082 104.072 65 107.667 65H243.011C246.605 65 249.513 67.9082 249.513 71.5025V206.847C249.48 210.408 246.605 213.316 243.011 213.316Z"
        fill="white" stroke="#111015" stroke-width="2" stroke-miterlimit="10"></path>
    <path
        d="M111.035 77.0926C112.659 77.0926 113.975 75.776 113.975 74.1518C113.975 72.5276 112.659 71.2109 111.035 71.2109C109.41 71.2109 108.094 72.5276 108.094 74.1518C108.094 75.776 109.41 77.0926 111.035 77.0926Z"
        fill="#AF34DD" stroke="#111015" stroke-width="2" stroke-miterlimit="10"></path>
    <path
        d="M122.074 77.0926C123.698 77.0926 125.014 75.776 125.014 74.1518C125.014 72.5276 123.698 71.2109 122.074 71.2109C120.449 71.2109 119.133 72.5276 119.133 74.1518C119.133 75.776 120.449 77.0926 122.074 77.0926Z"
        fill="#9AFF1A" stroke="#111015" stroke-width="2" stroke-miterlimit="10"></path>
    <path
        d="M133.089 77.0926C134.713 77.0926 136.03 75.776 136.03 74.1518C136.03 72.5276 134.713 71.2109 133.089 71.2109C131.465 71.2109 130.148 72.5276 130.148 74.1518C130.148 75.776 131.465 77.0926 133.089 77.0926Z"
        fill="#2DE283" stroke="#111015" stroke-width="2" stroke-miterlimit="10"></path>
    <path
        d="M238.368 76.9299H144.098C142.562 76.9299 141.32 75.6882 141.32 74.1525C141.32 72.6167 142.562 71.375 144.098 71.375H238.368C239.904 71.375 241.146 72.6167 241.146 74.1525C241.146 75.6882 239.904 76.9299 238.368 76.9299Z"
        fill="white" stroke="#111015" stroke-width="2" stroke-miterlimit="10"></path>
    <mask id="mask0_1643_711" style="mask-type:luminance" maskUnits="userSpaceOnUse" x="101" y="65"
        width="149" height="149">
        <path
            d="M243.011 213.316H107.667C104.072 213.316 101.164 210.408 101.164 206.814V71.5025C101.164 67.9082 104.072 65 107.667 65H243.011C246.605 65 249.513 67.9082 249.513 71.5025V206.847C249.48 210.408 246.605 213.316 243.011 213.316Z"
            fill="white"></path>
    </mask>
    <g mask="url(#mask0_1643_711)">
        <path
            d="M220.526 153.78C220.526 153.78 218.239 176.49 262.711 179.594C262.711 179.594 253.856 246.188 180.237 241.09C106.618 235.993 130.504 140.023 130.504 140.023L220.526 153.78Z"
            fill="#111015"></path>
        <path
            d="M129.133 147.339C129.133 147.339 132.466 124.989 129.786 114.924C124.166 93.6524 129.525 91.2344 129.525 91.2344L179.683 94.7307C204.549 96.4625 223.305 117.996 221.573 142.862L216.182 200.34L129.133 147.339Z"
            fill="#111015"></path>
        <path d="M76 88.8516L132.105 124.24L134.359 91.7271L76 88.8516Z" fill="#111015"></path>
        <path
            d="M162.529 157.272C162.529 157.272 122.142 154.919 80.0549 118.289C80.0549 118.289 72.7028 132.34 83.4532 148.122C94.2037 163.905 155.863 180.929 155.863 180.929L162.529 157.272Z"
            fill="#111015"></path>
        <path
            d="M166.876 179.889C166.876 179.889 126.488 177.536 84.4014 140.906C84.4014 140.906 75.9711 157.179 86.7215 172.961C97.4719 188.744 160.21 203.579 160.21 203.579L166.876 179.889Z"
            fill="#111015"></path>
        <path
            d="M167.558 183.12C167.558 183.12 142.756 205.536 100.67 168.906C100.67 168.906 92.1414 180.147 102.892 195.929C113.642 211.712 162.689 206.908 162.689 206.908L167.558 183.12Z"
            fill="#111015"></path>
        <path
            d="M169.583 150.119C182.992 150.119 193.861 139.249 193.861 125.841C193.861 112.432 182.992 101.562 169.583 101.562C156.174 101.562 145.305 112.432 145.305 125.841C145.305 139.249 156.174 150.119 169.583 150.119Z"
            fill="white"></path>
        <path
            d="M169.585 143.716C179.456 143.716 187.458 135.714 187.458 125.843C187.458 115.971 179.456 107.969 169.585 107.969C159.713 107.969 151.711 115.971 151.711 125.843C151.711 135.714 159.713 143.716 169.585 143.716Z"
            fill="#111015"></path>
    </g>
    <path d="M76 88.8516L132.105 124.24L134.359 91.7271L76 88.8516Z" fill="#111015"></path>
    <path
        d="M162.529 157.279C162.529 157.279 122.142 154.927 80.0549 118.297C80.0549 118.297 72.7028 132.348 83.4532 148.13C94.2037 163.913 155.863 180.937 155.863 180.937L162.529 157.279Z"
        fill="#111015"></path>
    <path
        d="M166.876 179.889C166.876 179.889 126.488 177.536 84.4014 140.906C84.4014 140.906 75.9711 157.179 86.7215 172.961C97.4719 188.744 160.21 203.579 160.21 203.579L166.876 179.889Z"
        fill="#111015"></path>
    <path
        d="M167.558 183.12C167.558 183.12 142.756 205.536 100.67 168.906C100.67 168.906 92.1414 180.147 102.892 195.929C113.642 211.712 162.689 206.908 162.689 206.908L167.558 183.12Z"
        fill="#111015"></path>
</svg>