<svg xmlns="http://www.w3.org/2000/svg" width="662" height="148" viewBox="0 0 662 148" fill="none">
    <path
        d="M236.747 114.498H214.844V84.2215H211.774C211.774 96.7797 208.147 115.891 186.245 115.891C152.342 115.891 135.047 97.755 135.047 69.1556C135.047 40.5563 152.347 22.2812 186.245 22.2812C212.615 22.2812 231.866 29.5356 236.329 57.4383H211.774C208.426 45.4423 197.405 44.4621 186.245 44.4621C163.925 44.4621 159.317 55.065 159.317 69.1556C159.317 83.2463 163.92 93.5705 185.827 93.5705C196.709 93.5705 201.032 91.0579 203.127 84.2215H178.712V65.5285H236.747V114.498Z"
        fill="#111015"></path>
    <path
        d="M250.273 114.496V43.7643H273.434V52.8347C278.037 44.6052 284.177 43.625 292.824 43.625H309.427V61.9001C295.197 61.9001 291.013 61.4821 286.829 62.4573C276.504 64.6914 273.992 71.1048 273.992 81.0111V114.491H250.273V114.496Z"
        fill="#111015"></path>
    <path
        d="M368.586 114.5C363.984 114.5 359.939 111.709 358.401 107.385L358.123 106.689C353.381 111.57 345.286 115.899 334.822 115.899C320.453 115.899 308.875 107.948 308.875 93.857C308.875 80.8809 318.781 71.2582 334.544 71.2582H358.123V66.0936C357.983 62.6058 354.496 61.9092 349.615 61.9092H315.851V43.7734H350.311C371.935 43.9128 379.746 55.0728 379.746 69.3028V96.6483H386.722V114.505H368.586V114.5ZM357.983 86.0405H342.918C334.549 86.0405 331.757 88.6925 331.757 92.7376C331.757 97.4792 336.922 99.156 341.246 99.156C347.943 99.156 358.128 94.9716 358.128 87.16L357.988 86.0455L357.983 86.0405Z"
        fill="#111015"></path>
    <path
        d="M408.528 114.498L382.023 43.7656H407.135L425.271 94.2672L443.406 43.7656H468.518L430.012 147.281H404.901L417.877 114.498H408.528Z"
        fill="#111015"></path>
    <path
        d="M505.524 42.375C537.471 42.375 546.263 63.302 546.263 79.6267C546.263 101.39 530.64 115.898 505.668 115.898C480.696 115.898 464.789 101.39 464.789 79.4874C464.789 63.1627 473.72 42.38 505.529 42.38L505.524 42.375ZM523.799 79.0645C523.799 70.1334 519.754 62.4612 505.524 62.4612C491.294 62.4612 487.249 69.9941 487.249 78.9252C487.249 87.8563 491.433 95.6678 505.524 95.6678C519.614 95.6678 523.799 88.2742 523.799 79.0645Z"
        fill="#111015"></path>
    <path d="M552.961 114.78V8.89062H576.679V114.78H552.961Z" fill="#111015"></path>
    <path
        d="M642.914 115.477C638.312 115.477 634.267 112.686 632.729 108.362L632.451 107.665C627.709 112.546 619.614 116.875 609.15 116.875C594.781 116.875 583.203 108.924 583.203 94.8336C583.203 81.8574 593.109 72.2348 608.872 72.2348H632.451V67.0702C632.312 63.5824 628.824 62.8858 623.943 62.8858H590.179V44.75H624.639C646.263 44.8893 654.074 56.0494 654.074 70.2794V97.6249H661.05V115.482H642.914V115.477ZM632.312 87.0171H617.246C608.877 87.0171 606.086 89.669 606.086 93.7141C606.086 98.4558 611.25 100.133 615.574 100.133C622.271 100.133 632.456 95.9481 632.456 88.1366L632.316 87.022L632.312 87.0171Z"
        fill="#111015"></path>
    <path
        d="M104.819 24.6438L144.454 0H68.6324C49.3572 0 33.734 15.6231 33.734 34.8983L33.938 43.3567H33.9331C33.9331 43.3567 34.4853 61.0098 0 61.0098C0 61.0098 2.74649 104.531 47.0983 111.83L44.4563 124.303L65.1495 118.736C65.0749 118.9 65.0898 116.069 65.1296 112.676C65.8461 112.616 66.5476 112.546 67.2442 112.462C67.2989 115.686 67.3288 118.721 67.2442 118.537L87.9374 124.104L83.6485 107.138C108.133 92.6193 106.153 54.6362 104.715 41.8392C104.526 38.6847 104.182 31.0274 104.819 24.6487V24.6438Z"
        fill="#111015"></path>
    <path
        d="M66.7469 54.9313C79.9698 54.9313 90.6891 44.212 90.6891 30.9891C90.6891 17.7662 79.9698 7.04688 66.7469 7.04688C53.524 7.04688 42.8047 17.7662 42.8047 30.9891C42.8047 44.212 53.524 54.9313 66.7469 54.9313Z"
        fill="white"></path>
    <path
        d="M66.7426 48.6259C76.4812 48.6259 84.3759 40.7312 84.3759 30.9926C84.3759 21.254 76.4812 13.3594 66.7426 13.3594C57.0041 13.3594 49.1094 21.254 49.1094 30.9926C49.1094 40.7312 57.0041 48.6259 66.7426 48.6259Z"
        fill="#111015"></path>
</svg>